# Created by 3DAce v2.72


g
v -1.000000 1.000000 1.000000
v -1.000000 -1.000000 1.000000
v 1.000000 1.000000 1.000000
v 1.000000 -1.000000 1.000000
v 1.000000 1.000000 -1.000000
v 1.000000 -1.000000 -1.000000
v -1.000000 1.000000 -1.000000
v -1.000000 -1.000000 -1.000000
v 0.000000 0.000000 1.000000
v 0.707107 0.000000 0.707107
v 1.000000 0.000000 -0.000000
v 0.707107 0.000000 -0.707107
v -0.000000 0.000000 -1.000000
v -0.707107 0.000000 -0.707107
v -1.000000 0.000000 0.000000
v -0.707107 0.000000 0.707107
v 0.000000 2.000000 0.000000
v 0.000000 0.000000 0.000000
v 0.000000 -1.007366 -0.003924
v 0.707107 -0.714473 -0.003924
v 1.000000 -0.007366 -0.003924
v 0.707107 0.699741 -0.003924
v -0.000000 0.992634 -0.003924
v -0.707107 0.699741 -0.003924
v -1.000000 -0.007366 -0.003924
v -0.707107 -0.714473 -0.003924
v 0.000000 -0.007366 1.996075
v 0.000000 -0.007366 -0.003924
v 0.007635 -0.000078 1.000000
v 0.007635 -0.707184 0.707107
v 0.007635 -1.000077 -0.000000
v 0.007635 -0.707184 -0.707107
v 0.007635 -0.000078 -1.000000
v 0.007635 0.707029 -0.707107
v 0.007635 0.999922 0.000000
v 0.007635 0.707029 0.707107
v 2.007634 -0.000078 0.000000
v 0.007635 -0.000078 0.000000
# 38 vertices

vt 0.000000 0.000000
vt 1.000000 0.000000
vt 1.000000 1.000000
vt 0.000000 1.000000
vt 0.000000 0.000000
vt 1.000000 0.000000
vt 1.000000 1.000000
vt 0.000000 1.000000
vt 0.000000 0.000000
vt 1.000000 0.000000
vt 1.000000 1.000000
vt 0.000000 1.000000
vt 0.000000 0.000000
vt 1.000000 0.000000
vt 1.000000 1.000000
vt 0.000000 1.000000
vt 0.000000 0.000000
vt 1.000000 0.000000
vt 1.000000 1.000000
vt 0.000000 1.000000
vt 0.000000 0.000000
vt 1.000000 0.000000
vt 1.000000 1.000000
vt 0.000000 1.000000
vt 0.125000 0.000000
vt 0.062500 1.000000
vt 0.000000 0.000000
vt 0.125000 0.000000
vt 0.250000 0.000000
vt 0.125000 1.000000
vt 0.125000 0.000000
vt 0.250000 0.000000
vt 0.375000 0.000000
vt 0.187500 1.000000
vt 0.250000 0.000000
vt 0.375000 0.000000
vt 0.500000 0.000000
vt 0.250000 1.000000
vt 0.375000 0.000000
vt 0.500000 0.000000
vt 0.625000 0.000000
vt 0.312500 1.000000
vt 0.500000 0.000000
vt 0.625000 0.000000
vt 0.750000 0.000000
vt 0.375000 1.000000
vt 0.625000 0.000000
vt 0.750000 0.000000
vt 0.875000 0.000000
vt 0.437500 1.000000
vt 0.750000 0.000000
vt 0.875000 0.000000
vt 1.000000 0.000000
vt 0.500000 1.000000
vt 0.875000 0.000000
vt 1.000000 0.000000
vt 0.000000 1.000000
vt 0.000000 1.000000
vt 2.000000 1.000000
vt 0.000000 1.000000
vt 0.000000 1.000000
vt 0.000000 1.000000
vt 2.000000 1.000000
vt 0.000000 1.000000
vt 0.000000 1.000000
vt 0.000000 1.000000
vt 2.000000 1.000000
vt 0.000000 1.000000
vt 0.000000 1.000000
vt 0.000000 1.000000
vt 2.000000 1.000000
vt 0.000000 1.000000
vt 0.000000 1.000000
vt 0.000000 1.000000
vt 2.000000 1.000000
vt 0.000000 1.000000
vt 0.000000 1.000000
vt 0.000000 1.000000
vt 2.000000 1.000000
vt 0.000000 1.000000
vt 0.000000 1.000000
vt 0.000000 1.000000
vt 2.000000 1.000000
vt 0.000000 1.000000
vt 0.000000 1.000000
vt 0.000000 1.000000
vt 2.000000 1.000000
vt 0.000000 1.000000
vt 0.125000 0.000000
vt 0.062500 1.000000
vt 0.000000 0.000000
vt 0.125000 0.000000
vt 0.250000 0.000000
vt 0.125000 1.000000
vt 0.125000 0.000000
vt 0.250000 0.000000
vt 0.375000 0.000000
vt 0.187500 1.000000
vt 0.250000 0.000000
vt 0.375000 0.000000
vt 0.500000 0.000000
vt 0.250000 1.000000
vt 0.375000 0.000000
vt 0.500000 0.000000
vt 0.625000 0.000000
vt 0.312500 1.000000
vt 0.500000 0.000000
vt 0.625000 0.000000
vt 0.750000 0.000000
vt 0.375000 1.000000
vt 0.625000 0.000000
vt 0.750000 0.000000
vt 0.875000 0.000000
vt 0.437500 1.000000
vt 0.750000 0.000000
vt 0.875000 0.000000
vt 1.000000 0.000000
vt 0.500000 1.000000
vt 0.875000 0.000000
vt 1.000000 0.000000
vt 0.000000 1.000000
vt 0.000000 1.000000
vt 1.000000 1.000000
vt 0.000000 1.000000
vt 0.000000 1.000000
vt 0.000000 1.000000
vt 1.000000 1.000000
vt 0.000000 1.000000
vt 0.000000 1.000000
vt 0.000000 1.000000
vt 1.000000 1.000000
vt 0.000000 1.000000
vt 0.000000 1.000000
vt 0.000000 1.000000
vt 1.000000 1.000000
vt 0.000000 1.000000
vt 0.000000 1.000000
vt 0.000000 1.000000
vt 1.000000 1.000000
vt 0.000000 1.000000
vt 0.000000 1.000000
vt 0.000000 1.000000
vt 1.000000 1.000000
vt 0.000000 1.000000
vt 0.000000 1.000000
vt 0.000000 1.000000
vt 1.000000 1.000000
vt 0.000000 1.000000
vt 0.000000 1.000000
vt 0.000000 1.000000
vt 1.000000 1.000000
vt 0.000000 1.000000
vt 0.125000 0.000000
vt 0.062500 1.000000
vt 0.000000 0.000000
vt 0.125000 0.000000
vt 0.250000 0.000000
vt 0.125000 1.000000
vt 0.125000 0.000000
vt 0.250000 0.000000
vt 0.375000 0.000000
vt 0.187500 1.000000
vt 0.250000 0.000000
vt 0.375000 0.000000
vt 0.500000 0.000000
vt 0.250000 1.000000
vt 0.375000 0.000000
vt 0.500000 0.000000
vt 0.625000 0.000000
vt 0.312500 1.000000
vt 0.500000 0.000000
vt 0.625000 0.000000
vt 0.750000 0.000000
vt 0.375000 1.000000
vt 0.625000 0.000000
vt 0.750000 0.000000
vt 0.875000 0.000000
vt 0.437500 1.000000
vt 0.750000 0.000000
vt 0.875000 0.000000
vt 1.000000 0.000000
vt 0.500000 1.000000
vt 0.875000 0.000000
vt 1.000000 0.000000
vt 0.000000 1.000000
vt 0.000000 1.000000
vt 0.000000 1.000000
vt 0.000000 1.000000
vt 0.000000 1.000000
vt 0.000000 1.000000
vt 0.000000 1.000000
vt 0.000000 1.000000
vt 0.000000 1.000000
vt 0.000000 1.000000
vt 0.000000 1.000000
vt 0.000000 1.000000
vt 0.000000 1.000000
vt 0.000000 1.000000
vt 0.000000 1.000000
vt 0.000000 1.000000
vt 0.000000 1.000000
vt 0.000000 1.000000
vt 0.000000 1.000000
vt 0.000000 1.000000
vt 0.000000 1.000000
vt 0.000000 1.000000
vt 0.000000 1.000000
vt 0.000000 1.000000
vt 0.000000 1.000000
vt 0.000000 1.000000
vt 0.000000 1.000000
vt 0.000000 1.000000
vt 0.000000 1.000000
vt 0.000000 1.000000
vt 0.000000 1.000000
vt 0.000000 1.000000
# 216 texture vertices

vn -0.000000 0.000000 1.000000
vn -0.000000 0.000000 1.000000
vn -0.000000 0.000000 1.000000
vn -0.000000 0.000000 1.000000
vn 1.000000 0.000000 0.000000
vn 1.000000 0.000000 0.000000
vn 1.000000 0.000000 0.000000
vn 1.000000 0.000000 0.000000
vn -0.000000 0.000000 -1.000000
vn -0.000000 0.000000 -1.000000
vn -0.000000 0.000000 -1.000000
vn -0.000000 0.000000 -1.000000
vn -1.000000 0.000000 0.000000
vn -1.000000 0.000000 0.000000
vn -1.000000 0.000000 0.000000
vn -1.000000 0.000000 0.000000
vn 0.000000 1.000000 0.000000
vn 0.000000 1.000000 0.000000
vn 0.000000 1.000000 0.000000
vn 0.000000 1.000000 0.000000
vn 0.000000 -1.000000 0.000000
vn 0.000000 -1.000000 0.000000
vn 0.000000 -1.000000 0.000000
vn 0.000000 -1.000000 0.000000
vn 0.632455 0.447214 0.632455
vn 0.331890 0.497836 0.801254
vn 0.000000 0.447214 0.894427
vn 0.632455 0.447214 0.632455
vn 0.894427 0.447214 0.000000
vn 0.801254 0.497836 0.331890
vn 0.632455 0.447214 0.632455
vn 0.894427 0.447214 0.000000
vn 0.632455 0.447214 -0.632455
vn 0.801254 0.497836 -0.331890
vn 0.894427 0.447214 0.000000
vn 0.632455 0.447214 -0.632455
vn 0.000000 0.447214 -0.894427
vn 0.331890 0.497836 -0.801254
vn 0.632455 0.447214 -0.632455
vn 0.000000 0.447214 -0.894427
vn -0.632455 0.447214 -0.632455
vn -0.331890 0.497836 -0.801254
vn 0.000000 0.447214 -0.894427
vn -0.632455 0.447214 -0.632455
vn -0.894427 0.447214 0.000000
vn -0.801254 0.497836 -0.331890
vn -0.632455 0.447214 -0.632455
vn -0.894427 0.447214 0.000000
vn -0.632455 0.447214 0.632455
vn -0.801254 0.497836 0.331890
vn -0.894427 0.447214 0.000000
vn -0.632455 0.447214 0.632455
vn 0.000000 0.447214 0.894427
vn -0.331890 0.497836 0.801254
vn -0.632455 0.447214 0.632455
vn 0.000000 0.447214 0.894427
vn 0.000000 -1.000000 0.000000
vn 0.000000 -1.000000 0.000000
vn 0.000000 -1.000000 0.000000
vn 0.000000 -1.000000 0.000000
vn 0.000000 -1.000000 0.000000
vn 0.000000 -1.000000 0.000000
vn 0.000000 -1.000000 0.000000
vn 0.000000 -1.000000 0.000000
vn 0.000000 -1.000000 -0.000000
vn 0.000000 -1.000000 0.000000
vn 0.000000 -1.000000 0.000000
vn 0.000000 -1.000000 -0.000000
vn 0.000000 -1.000000 0.000000
vn 0.000000 -1.000000 -0.000000
vn 0.000000 -1.000000 0.000000
vn 0.000000 -1.000000 0.000000
vn -0.000000 -1.000000 0.000000
vn 0.000000 -1.000000 0.000000
vn 0.000000 -1.000000 0.000000
vn -0.000000 -1.000000 0.000000
vn 0.000000 -1.000000 0.000000
vn -0.000000 -1.000000 0.000000
vn 0.000000 -1.000000 0.000000
vn 0.000000 -1.000000 0.000000
vn 0.000000 -1.000000 0.000000
vn 0.000000 -1.000000 0.000000
vn 0.000000 -1.000000 0.000000
vn 0.000000 -1.000000 0.000000
vn 0.000000 -1.000000 0.000000
vn 0.000000 -1.000000 0.000000
vn 0.000000 -1.000000 0.000000
vn 0.000000 -1.000000 0.000000
vn 0.632455 -0.632455 0.447214
vn 0.331890 -0.801254 0.497836
vn 0.000000 -0.894427 0.447214
vn 0.632455 -0.632455 0.447214
vn 0.894427 0.000000 0.447214
vn 0.801254 -0.331890 0.497836
vn 0.632455 -0.632455 0.447214
vn 0.894427 0.000000 0.447214
vn 0.632455 0.632455 0.447214
vn 0.801254 0.331890 0.497836
vn 0.894427 0.000000 0.447214
vn 0.632455 0.632455 0.447214
vn 0.000000 0.894427 0.447214
vn 0.331890 0.801254 0.497836
vn 0.632455 0.632455 0.447214
vn 0.000000 0.894427 0.447214
vn -0.632455 0.632455 0.447214
vn -0.331890 0.801254 0.497836
vn 0.000000 0.894427 0.447214
vn -0.632455 0.632455 0.447214
vn -0.894427 0.000000 0.447214
vn -0.801254 0.331890 0.497836
vn -0.632455 0.632455 0.447214
vn -0.894427 0.000000 0.447214
vn -0.632455 -0.632455 0.447214
vn -0.801254 -0.331890 0.497836
vn -0.894427 0.000000 0.447214
vn -0.632455 -0.632455 0.447214
vn 0.000000 -0.894427 0.447214
vn -0.331890 -0.801254 0.497836
vn -0.632455 -0.632455 0.447214
vn 0.000000 -0.894427 0.447214
vn 0.000000 0.000000 -1.000000
vn 0.000000 0.000000 -1.000000
vn 0.000000 0.000000 -1.000000
vn 0.000000 0.000000 -1.000000
vn 0.000000 0.000000 -1.000000
vn 0.000000 0.000000 -1.000000
vn 0.000000 0.000000 -1.000000
vn 0.000000 0.000000 -1.000000
vn 0.000000 0.000000 -1.000000
vn 0.000000 0.000000 -1.000000
vn 0.000000 0.000000 -1.000000
vn 0.000000 0.000000 -1.000000
vn 0.000000 0.000000 -1.000000
vn 0.000000 0.000000 -1.000000
vn 0.000000 0.000000 -1.000000
vn 0.000000 0.000000 -1.000000
vn -0.000000 0.000000 -1.000000
vn 0.000000 0.000000 -1.000000
vn 0.000000 0.000000 -1.000000
vn -0.000000 0.000000 -1.000000
vn -0.000000 0.000000 -1.000000
vn -0.000000 0.000000 -1.000000
vn 0.000000 0.000000 -1.000000
vn -0.000000 0.000000 -1.000000
vn 0.000000 -0.000000 -1.000000
vn -0.000000 0.000000 -1.000000
vn 0.000000 0.000000 -1.000000
vn 0.000000 -0.000000 -1.000000
vn 0.000000 0.000000 -1.000000
vn 0.000000 -0.000000 -1.000000
vn 0.000000 0.000000 -1.000000
vn 0.000000 0.000000 -1.000000
vn 0.447214 -0.632456 0.632455
vn 0.497836 -0.331891 0.801254
vn 0.447214 -0.000000 0.894427
vn 0.447214 -0.632456 0.632455
vn 0.447213 -0.894427 0.000000
vn 0.497836 -0.801254 0.331890
vn 0.447214 -0.632456 0.632455
vn 0.447213 -0.894427 0.000000
vn 0.447214 -0.632456 -0.632455
vn 0.497836 -0.801254 -0.331890
vn 0.447213 -0.894427 0.000000
vn 0.447214 -0.632456 -0.632455
vn 0.447214 -0.000000 -0.894427
vn 0.497836 -0.331891 -0.801254
vn 0.447214 -0.632456 -0.632455
vn 0.447214 -0.000000 -0.894427
vn 0.447214 0.632455 -0.632455
vn 0.497836 0.331890 -0.801254
vn 0.447214 -0.000000 -0.894427
vn 0.447214 0.632455 -0.632455
vn 0.447214 0.894427 0.000000
vn 0.497836 0.801254 -0.331890
vn 0.447214 0.632455 -0.632455
vn 0.447214 0.894427 0.000000
vn 0.447214 0.632455 0.632455
vn 0.497836 0.801254 0.331890
vn 0.447214 0.894427 0.000000
vn 0.447214 0.632455 0.632455
vn 0.447214 -0.000000 0.894427
vn 0.497836 0.331890 0.801254
vn 0.447214 0.632455 0.632455
vn 0.447214 -0.000000 0.894427
vn -1.000000 -0.000000 0.000000
vn -1.000000 0.000000 0.000000
vn -1.000000 0.000000 0.000000
vn -1.000000 -0.000000 0.000000
vn -1.000000 0.000000 0.000000
vn -1.000000 -0.000000 0.000000
vn -1.000000 0.000000 0.000000
vn -1.000000 0.000000 0.000000
vn -1.000000 0.000000 -0.000000
vn -1.000000 0.000000 0.000000
vn -1.000000 0.000000 0.000000
vn -1.000000 0.000000 -0.000000
vn -1.000000 0.000000 0.000000
vn -1.000000 0.000000 -0.000000
vn -1.000000 0.000000 0.000000
vn -1.000000 0.000000 0.000000
vn -1.000000 0.000000 0.000000
vn -1.000000 0.000000 0.000000
vn -1.000000 0.000000 0.000000
vn -1.000000 0.000000 0.000000
vn -1.000000 0.000000 0.000000
vn -1.000000 0.000000 0.000000
vn -1.000000 0.000000 0.000000
vn -1.000000 0.000000 0.000000
vn -1.000000 0.000000 0.000000
vn -1.000000 0.000000 0.000000
vn -1.000000 0.000000 0.000000
vn -1.000000 0.000000 0.000000
vn -1.000000 0.000000 0.000000
vn -1.000000 0.000000 0.000000
vn -1.000000 0.000000 0.000000
vn -1.000000 0.000000 0.000000
# 216 vertex normals

g mat1
f 4/5/5 6/6/6 5/7/7 3/8/8
f 8/13/13 2/14/14 1/15/15 7/16/16
f 30/153/153 37/154/154 29/155/155
f 31/157/157 37/158/158 30/159/159
f 32/161/161 37/162/162 31/163/163
f 33/165/165 37/166/166 32/167/167
f 34/169/169 37/170/170 33/171/171
f 35/173/173 37/174/174 34/175/175
f 36/177/177 37/178/178 35/179/179
f 29/181/181 37/182/182 36/183/183
f 30/185/185 29/186/186 38/187/187
f 31/189/189 30/190/190 38/191/191
f 32/193/193 31/194/194 38/195/195
f 33/197/197 32/198/198 38/199/199
f 34/201/201 33/202/202 38/203/203
f 35/205/205 34/206/206 38/207/207
f 36/209/209 35/210/210 38/211/211
f 29/213/213 36/214/214 38/215/215
# 18 elements

g mat2
f 2/1/1 4/2/2 3/3/3 1/4/4
f 6/9/9 8/10/10 7/11/11 5/12/12
f 20/89/89 27/90/90 19/91/91
f 21/93/93 27/94/94 20/95/95
f 22/97/97 27/98/98 21/99/99
f 23/101/101 27/102/102 22/103/103
f 24/105/105 27/106/106 23/107/107
f 25/109/109 27/110/110 24/111/111
f 26/113/113 27/114/114 25/115/115
f 19/117/117 27/118/118 26/119/119
f 20/121/121 19/122/122 28/123/123
f 21/125/125 20/126/126 28/127/127
f 22/129/129 21/130/130 28/131/131
f 23/133/133 22/134/134 28/135/135
f 24/137/137 23/138/138 28/139/139
f 25/141/141 24/142/142 28/143/143
f 26/145/145 25/146/146 28/147/147
f 19/149/149 26/150/150 28/151/151
# 18 elements

g mat3
f 1/17/17 3/18/18 5/19/19 7/20/20
f 8/21/21 6/22/22 4/23/23 2/24/24
f 10/25/25 17/26/26 9/27/27
f 11/29/29 17/30/30 10/31/31
f 12/33/33 17/34/34 11/35/35
f 13/37/37 17/38/38 12/39/39
f 14/41/41 17/42/42 13/43/43
f 15/45/45 17/46/46 14/47/47
f 16/49/49 17/50/50 15/51/51
f 9/53/53 17/54/54 16/55/55
f 10/57/57 9/58/58 18/59/59
f 11/61/61 10/62/62 18/63/63
f 12/65/65 11/66/66 18/67/67
f 13/69/69 12/70/70 18/71/71
f 14/73/73 13/74/74 18/75/75
f 15/77/77 14/78/78 18/79/79
f 16/81/81 15/82/82 18/83/83
f 9/85/85 16/86/86 18/87/87
# 18 elements

